<?xml version="1.0" encoding="utf-8"?>
<!-- Generator: Adobe Illustrator 22.0.1, SVG Export Plug-In . SVG Version: 6.00 Build 0)  -->
<svg version="1.1" id="Layer_1" xmlns="http://www.w3.org/2000/svg" xmlns:xlink="http://www.w3.org/1999/xlink" x="0px" y="0px"
	 viewBox="0 0 500 323" style="enable-background:new 0 0 500 323;" xml:space="preserve">
<style type="text/css">
	.st0{display:none;}
	.st1{display:inline;fill:#FFFFFF;}
	.st2{fill:#FCFC06;}
	.st3{fill:#3D3D3D;}
	.st4{fill:#303030;}
	.st5{fill:#232323;}
	.st6{display:inline;}
	.st7{clip-path:url(#SVGID_2_);}
	.st8{opacity:0.13;clip-path:url(#SVGID_4_);fill:#FCFC06;enable-background:new    ;}
	.st9{opacity:0.13;clip-path:url(#SVGID_6_);fill:#FCFC06;enable-background:new    ;}
	.st10{clip-path:url(#SVGID_8_);}
	.st11{fill:#FFFFFF;}
	.st12{clip-path:url(#SVGID_10_);}
	.st13{clip-path:url(#SVGID_12_);}
</style>
<g id="BACKGROUND" class="st0">
	<rect y="-37" class="st1" width="500" height="500"/>
</g>
<g id="OBJECTS">
	<g>
		<g>
			<path class="st2" d="M272.2,190.1c-0.7,0-1.4-0.6-1.4-1.4c0-0.7,0.6-1.4,1.4-1.4h47.4l23.9-18.6h56.3l0,0c0.7,0,1.4,0.6,1.4,1.4
				c0,0.7-0.6,1.4-1.4,1.4h-55.4L320.5,190L272.2,190.1L272.2,190.1z"/>
			<path class="st2" d="M404.9,176.4c-3.5,0-6.4-2.9-6.4-6.4s2.9-6.4,6.4-6.4s6.4,2.9,6.4,6.4C411.2,173.6,408.4,176.4,404.9,176.4z
				 M404.9,166.3c-2,0-3.7,1.7-3.7,3.7s1.7,3.7,3.7,3.7s3.7-1.7,3.7-3.7C408.5,168,406.9,166.3,404.9,166.3z"/>
			<path class="st2" d="M404.1,208.1L404.1,208.1c-3.5,0-6.4-2.9-6.4-6.4s2.9-6.4,6.4-6.4s6.4,2.9,6.4,6.4
				C410.5,205.2,407.6,208.1,404.1,208.1z M404.1,198c-2,0-3.7,1.7-3.7,3.7s1.7,3.7,3.7,3.7v1.4v-1.4c2,0,3.7-1.7,3.7-3.7
				C407.8,199.7,406.1,198,404.1,198z"/>
			<path class="st2" d="M448.8,236L448.8,236c-2.6,0-4.8-2.2-4.8-4.8c0-1.3,0.5-2.5,1.4-3.4s2.1-1.4,3.4-1.4c2.7,0,4.8,2.2,4.8,4.8
				C453.7,233.8,451.5,236,448.8,236z M448.8,228.4c-0.7,0-1.4,0.3-2,0.8c-0.5,0.5-0.8,1.2-0.8,2c0,1.5,1.2,2.8,2.8,2.8
				c1.5,0,2.8-1.2,2.8-2.8C451.6,229.6,450.4,228.4,448.8,228.4z"/>
			<path class="st2" d="M307.1,203.1c-0.7,0-1.4-0.6-1.4-1.4c0-0.7,0.6-1.4,1.4-1.4l92-0.1l0,0c0.7,0,1.4,0.6,1.4,1.4
				s-0.6,1.4-1.4,1.4L307.1,203.1L307.1,203.1z"/>
			<path class="st2" d="M412.9,232.5l-25.3-12.4h-66.3l0,0c-0.7,0-1.4-0.6-1.4-1.4s0.6-1.4,1.4-1.4h66.9l25.3,12.4h30.7l0,0
				c0.7,0,1.4,0.6,1.4,1.4c0,0.7-0.6,1.4-1.4,1.4H412.9z"/>
			<g>
				<path class="st2" d="M448.8,307.9L448.8,307.9h-56.3l-23.9-18.6h-47.4c-0.7,0-1.4-0.6-1.4-1.4c0-0.7,0.6-1.4,1.4-1.4l0,0h48.3
					l23.9,18.6h55.4c0.7,0,1.4,0.6,1.4,1.4C450.2,307.3,449.6,307.9,448.8,307.9z"/>
				<path class="st2" d="M453.9,313L453.9,313L453.9,313c-3.5,0-6.4-2.9-6.4-6.4s2.9-6.4,6.4-6.4s6.4,2.9,6.4,6.4
					C460.2,310.1,457.4,313,453.9,313z M453.8,302.9c-2,0-3.7,1.7-3.7,3.7s1.7,3.7,3.7,3.7l0,0c2,0,3.7-1.7,3.7-3.7
					C457.5,304.5,455.9,302.9,453.8,302.9z"/>
				<path class="st2" d="M418.2,281.3L418.2,281.3L418.2,281.3c-3.5,0-6.4-2.9-6.4-6.4s2.9-6.4,6.4-6.4s6.4,2.9,6.4,6.4
					c0,1.7-0.7,3.3-1.9,4.5C421.5,280.6,419.9,281.3,418.2,281.3z M418.2,271.2c-2,0-3.7,1.7-3.7,3.7s1.7,3.7,3.7,3.7l0,0l0,0
					c1,0,1.9-0.4,2.6-1.1s1.1-1.6,1.1-2.6C421.9,272.9,420.2,271.2,418.2,271.2z"/>
				<path class="st2" d="M448.8,251.8c-1.7,0-3.3-0.7-4.5-1.9c-1.2-1.2-1.9-2.8-1.9-4.5c0-3.5,2.9-6.4,6.4-6.4s6.4,2.9,6.4,6.4
					C455.2,249,452.4,251.8,448.8,251.8z M448.8,241.8c-2,0-3.7,1.7-3.7,3.7c0,1,0.4,1.9,1.1,2.6s1.6,1.1,2.6,1.1
					c2,0,3.7-1.7,3.7-3.7C452.5,243.4,450.9,241.8,448.8,241.8z"/>
				<path class="st2" d="M413.2,276.2L413.2,276.2l-92-0.1c-0.7,0-1.4-0.6-1.4-1.4c0-0.7,0.6-1.4,1.4-1.4l0,0h92
					c0.7,0,1.4,0.6,1.4,1.4C414.5,275.6,413.9,276.2,413.2,276.2z"/>
				<path class="st2" d="M388.2,259.2h-66.9c-0.7,0-1.4-0.6-1.4-1.4c0-0.7,0.6-1.4,1.4-1.4l0,0h66.3l25.3-12.4h31.3
					c0.7,0,1.4,0.6,1.4,1.4c0,0.7-0.6,1.4-1.4,1.4l0,0h-30.7L388.2,259.2z"/>
			</g>
			<path class="st2" d="M232.9,190.1L232.9,190.1h-48.3l-23.9-18.6h-55.4c-0.7,0-1.4-0.6-1.4-1.4c0-0.7,0.6-1.4,1.4-1.4l0,0h56.3
				l23.9,18.6h47.4c0.7,0,1.4,0.6,1.4,1.4C234.3,189.5,233.7,190.1,232.9,190.1z"/>
			<path class="st2" d="M100.3,176.4c-3.5,0-6.4-2.9-6.4-6.4s2.9-6.4,6.4-6.4c1.7,0,3.3,0.7,4.5,1.9s1.9,2.8,1.9,4.5
				C106.6,173.6,103.8,176.4,100.3,176.4z M100.3,166.3c-2,0-3.7,1.7-3.7,3.7s1.7,3.7,3.7,3.7s3.7-1.7,3.7-3.7c0-1-0.4-1.9-1.1-2.6
				C102.2,166.7,101.2,166.3,100.3,166.3z"/>
			<path class="st2" d="M86.8,208.1L86.8,208.1L86.8,208.1c-3.5,0-6.4-2.9-6.4-6.4s2.9-6.4,6.4-6.4c1.7,0,3.3,0.7,4.5,1.9
				s1.9,2.8,1.9,4.5s-0.7,3.3-1.9,4.5C90.2,207.4,88.6,208.1,86.8,208.1z M86.8,198c-2,0-3.7,1.7-3.7,3.7s1.7,3.7,3.7,3.7l0,0l0,0
				c1,0,1.9-0.4,2.6-1.1c0.7-0.7,1.1-1.6,1.1-2.6s-0.4-1.9-1.1-2.6C88.8,198.4,87.8,198,86.8,198z"/>
			<path class="st2" d="M183.8,203.1L183.8,203.1h-92c-0.7,0-1.4-0.6-1.4-1.4c0-0.7,0.6-1.4,1.4-1.4l0,0l92,0.1
				c0.7,0,1.4,0.6,1.4,1.4C185.2,202.5,184.6,203.1,183.8,203.1z"/>
			<path class="st2" d="M87.1,232.5H55.8c-0.7,0-1.4-0.6-1.4-1.4c0-0.7,0.6-1.4,1.4-1.4l0,0h30.7l25.3-12.4h66.9
				c0.7,0,1.4,0.6,1.4,1.4c0,0.7-0.6,1.4-1.4,1.4l0,0h-66.3L87.1,232.5z"/>
			<g>
				<path class="st2" d="M51.2,307.9c-0.7,0-1.4-0.6-1.4-1.4c0-0.7,0.6-1.4,1.4-1.4h55.4l23.9-18.6h48.3l0,0c0.7,0,1.4,0.6,1.4,1.4
					c0,0.7-0.6,1.4-1.4,1.4h-47.4l-23.9,18.6H51.2L51.2,307.9z"/>
				<path class="st2" d="M46.1,313c-3.5,0-6.4-2.9-6.4-6.4s2.9-6.4,6.4-6.4s6.4,2.9,6.4,6.4c0,1.7-0.7,3.3-1.9,4.5
					C49.5,312.3,47.9,313,46.1,313L46.1,313z M46.2,302.9c-2,0-3.7,1.7-3.7,3.7s1.7,3.7,3.7,3.7v1.4v-1.4c1,0,1.9-0.4,2.6-1.1
					c0.7-0.7,1.1-1.6,1.1-2.6C49.8,304.5,48.2,302.9,46.2,302.9z"/>
				<path class="st2" d="M81.8,281.3c-3.5,0-6.4-2.9-6.4-6.4s2.9-6.4,6.4-6.4s6.4,2.9,6.4,6.4c0,1.7-0.7,3.3-1.9,4.5
					S83.5,281.3,81.8,281.3L81.8,281.3z M81.8,271.2c-2,0-3.7,1.7-3.7,3.7s1.7,3.7,3.7,3.7v1.4v-1.4c1,0,1.9-0.4,2.6-1.1
					s1.1-1.6,1.1-2.6C85.5,272.9,83.8,271.2,81.8,271.2z"/>
				<path class="st2" d="M51.2,251.8c-3.5,0-6.4-2.9-6.4-6.4s2.9-6.4,6.4-6.4s6.4,2.9,6.4,6.4c0,1.7-0.7,3.3-1.9,4.5
					C54.5,251.2,52.9,251.8,51.2,251.8z M51.2,241.8c-2,0-3.7,1.7-3.7,3.7s1.7,3.7,3.7,3.7c1,0,1.9-0.4,2.6-1.1
					c0.7-0.7,1.1-1.6,1.1-2.6C54.8,243.4,53.2,241.8,51.2,241.8z"/>
				<path class="st2" d="M86.8,276.2c-0.7,0-1.4-0.6-1.4-1.4c0-0.7,0.6-1.4,1.4-1.4h92l0,0c0.7,0,1.4,0.6,1.4,1.4
					c0,0.7-0.6,1.4-1.4,1.4H86.8L86.8,276.2z"/>
				<path class="st2" d="M111.9,259.2l-25.3-12.4H55.9l0,0c-0.7,0-1.4-0.6-1.4-1.4c0-0.7,0.6-1.4,1.4-1.4h31.3l25.3,12.4h66.3l0,0
					c0.7,0,1.4,0.6,1.4,1.4c0,0.7-0.6,1.4-1.4,1.4H111.9z"/>
			</g>
			<path class="st2" d="M51.2,235.3L51.2,235.3c-2.8,0-5.2-2.3-5.2-5.2c0-2.8,2.3-5.2,5.2-5.2c1.4,0,2.7,0.5,3.7,1.5
				s1.5,2.3,1.5,3.7C56.3,233,54,235.3,51.2,235.3z M51.2,227.2c-1.6,0-3,1.3-3,3c0,1.6,1.3,3,3,3c1.6,0,3-1.3,3-3
				c0-0.8-0.3-1.5-0.9-2.1C52.7,227.5,52,227.2,51.2,227.2z"/>
		</g>
		<path class="st3" d="M247.1,289.8c0,0,2.9-88.1-17.1-100.6s-79.2,27.2-81.7,38.4c-2.5,11.2,0,34.1,13.4,62.2H247.1z"/>
		<path class="st4" d="M247.1,277l-49.4-32.1l27.9-25.4l-75.8-40.1l57.9-24.2c6.3,10.5,15.5,18.4,26.2,22
			C246.2,216.6,247.1,277,247.1,277z"/>
		<path class="st3" d="M247.1,289.8c0,0-2.9-88.1,17.1-100.6s79.2,27.2,81.7,38.4c2.5,11.2,0,34.1-13.4,62.2H247.1z"/>
		<path class="st4" d="M247.1,277l49.4-32.1l-27.9-25.4l75.8-40.1l-57.9-24.2c-6.3,10.5-15.5,18.4-26.2,22
			C248,216.6,247.1,277,247.1,277z"/>
		<path class="st4" d="M357.1,91.8c0,11.5-48.1,20.8-107.3,20.8c-59.3,0-107.3-9.3-107.3-20.8S190.6,71,249.8,71
			S357.1,80.3,357.1,91.8z"/>
		<path class="st5" d="M203.4,73.9c0,0,10.7-56.9,21.1-57.4c10.4-0.5,17.8,15.3,30.2,5.4c12.4-9.9,23.8-25.7,41.3,52
			C296,73.9,249.2,93.7,203.4,73.9z"/>
		<path class="st2" d="M204.7,67.5c0,0,50.5,12.8,89.1,0l2.2,6.4c0,0-7,11-43.8,10.5s-48.8-10.5-48.8-10.5L204.7,67.5z"/>
	</g>
	<g class="st0">
		<g class="st6">
			<path id="XMLID_1_" class="st4" d="M246.6,120.1c0,0-30-1-46-6c0,0,5,16,11,21s24,4,25,4s5-11,10-11s9,11,10,11s19,1,25-4
				s11-21,11-21C276.6,119.1,246.6,120.1,246.6,120.1z"/>
		</g>
		<g class="st6">
			<defs>
				<path id="SVGID_1_" d="M246.6,120.1c0,0-30-1-46-6c0,0,5,16,11,21s24,4,25,4s5-11,10-11s9,11,10,11s19,1,25-4s11-21,11-21
					C276.6,119.1,246.6,120.1,246.6,120.1z"/>
			</defs>
			<clipPath id="SVGID_2_">
				<use xlink:href="#SVGID_1_"  style="overflow:visible;"/>
			</clipPath>
			<g class="st7">
				<g>
					<path class="st4" d="M220.6,150.9c1.3,0.5,2.7,0.9,4.1,1.3c1.3,0.4,2.6,0.5,3.9,0.8c1.9,0.5,2.7-2.4,0.8-2.9
						c-1.3-0.4-2.6-0.5-3.9-0.8c-1.4-0.4-2.7-0.9-4.1-1.3C219.6,147.4,218.8,150.3,220.6,150.9L220.6,150.9z"/>
				</g>
			</g>
		</g>
		<g class="st6">
			<defs>
				<path id="SVGID_3_" d="M246.6,120.1c0,0-30-1-46-6c0,0,5,16,11,21s24,4,25,4s5-11,10-11s9,11,10,11s19,1,25-4s11-21,11-21
					C276.6,119.1,246.6,120.1,246.6,120.1z"/>
			</defs>
			<clipPath id="SVGID_4_">
				<use xlink:href="#SVGID_3_"  style="overflow:visible;"/>
			</clipPath>
			<polygon class="st8" points="257.8,143.9 252,140.1 271.9,112.5 277.8,116.4 			"/>
		</g>
		<g class="st6">
			<defs>
				<path id="SVGID_5_" d="M227.9,97.5c0,0-17.9,24.1-31.1,34.4c0,0,16,5,23.5,2.9c7.5-2.1,17-17.5,17.5-18.3
					c0.6-0.8-6.2-10.4-3.4-14.5c2.8-4.1,14.2-1.1,14.7-2c0.6-0.8,11.6-15.1,10.9-22.8c-0.7-7.8-11-21-11-21
					C244.1,72.3,227.9,97.5,227.9,97.5z"/>
			</defs>
			<clipPath id="SVGID_6_">
				<use xlink:href="#SVGID_5_"  style="overflow:visible;"/>
			</clipPath>
			
				<rect x="199.4" y="123" transform="matrix(0.5693 -0.8221 0.8221 0.5693 -11.2619 231.8279)" class="st9" width="32.5" height="7.3"/>
		</g>
		<g class="st6">
			<defs>
				<path id="SVGID_7_" d="M246.6,120.1c0,0-30-1-46-6c0,0,5,16,11,21s24,4,25,4s5-11,10-11s9,11,10,11s19,1,25-4s11-21,11-21
					C276.6,119.1,246.6,120.1,246.6,120.1z"/>
			</defs>
			<clipPath id="SVGID_8_">
				<use xlink:href="#SVGID_7_"  style="overflow:visible;"/>
			</clipPath>
			<g class="st10">
				<g>
					<path class="st11" d="M191.9,119.2c0.1,0.4,0.3,0.7,0.6,1c0.6,0.6,1.5,0.6,2.1,0s0.6-1.5,0-2.1c0.1,0.1,0.1,0.2,0.2,0.3
						c-0.1-0.8-1.1-1.2-1.8-1C192.1,117.6,191.8,118.4,191.9,119.2L191.9,119.2z"/>
				</g>
			</g>
		</g>
		<g class="st6">
			<defs>
				<path id="SVGID_9_" d="M246.6,120.1c0,0-30-1-46-6c0,0,5,16,11,21s24,4,25,4s5-11,10-11s9,11,10,11s19,1,25-4s11-21,11-21
					C276.6,119.1,246.6,120.1,246.6,120.1z"/>
			</defs>
			<clipPath id="SVGID_10_">
				<use xlink:href="#SVGID_9_"  style="overflow:visible;"/>
			</clipPath>
			<g class="st12">
				<g>
					<path class="st11" d="M193.7,121.2c1.9,0,1.9-3,0-3C191.7,118.2,191.7,121.2,193.7,121.2L193.7,121.2z"/>
				</g>
			</g>
		</g>
		<g class="st6">
			<defs>
				<path id="SVGID_11_" d="M246.6,120.1c0,0-30-1-46-6c0,0,5,16,11,21s24,4,25,4s5-11,10-11s9,11,10,11s19,1,25-4s11-21,11-21
					C276.6,119.1,246.6,120.1,246.6,120.1z"/>
			</defs>
			<clipPath id="SVGID_12_">
				<use xlink:href="#SVGID_11_"  style="overflow:visible;"/>
			</clipPath>
			<g class="st13">
				<g>
					<path class="st11" d="M193.7,121.2c1.9,0,1.9-3,0-3C191.7,118.2,191.7,121.2,193.7,121.2L193.7,121.2z"/>
				</g>
			</g>
		</g>
	</g>
</g>
<g id="DESIGNED_BY_FREEPIK">
</g>
</svg>
