<?xml version="1.0" encoding="utf-8"?>
<!-- Generator: Adobe Illustrator 22.0.1, SVG Export Plug-In . SVG Version: 6.00 Build 0)  -->
<svg version="1.0" xmlns="http://www.w3.org/2000/svg" xmlns:xlink="http://www.w3.org/1999/xlink" x="0px" y="0px"
	 viewBox="0 0 500 500" style="enable-background:new 0 0 500 500;" xml:space="preserve">
<style type="text/css">
	.st0{display:none;}
	.st1{display:inline;fill:#FFFFFF;}
	.st2{fill:#FCFC06;}
	.st3{fill:#3D3D3D;}
	.st4{fill:#303030;}
	.st5{fill:#232323;}
	.st6{display:inline;}
	.st7{display:inline;clip-path:url(#XMLID_3_);}
	.st8{display:inline;opacity:0.13;clip-path:url(#XMLID_3_);fill:#FCFC06;}
	.st9{fill:#FFFFFF;}
	.st10{opacity:0.31;}
</style>
<g id="BACKGROUND" class="st0">
	<rect class="st1" width="500" height="500"/>
</g>
<g id="OBJECTS">
	<g>
		<g>
			<path class="st2" d="M272.2,227.1c-0.7,0-1.4-0.6-1.4-1.4c0-0.7,0.6-1.4,1.4-1.4l47.4,0l23.9-18.6l56.3,0c0,0,0,0,0,0
				c0.7,0,1.4,0.6,1.4,1.4c0,0.7-0.6,1.4-1.4,1.4l-55.4,0L320.5,227L272.2,227.1L272.2,227.1z"/>
			<path class="st2" d="M404.9,213.4c-3.5,0-6.4-2.9-6.4-6.4c0-3.5,2.9-6.4,6.4-6.4c3.5,0,6.4,2.9,6.4,6.4
				C411.2,210.6,408.4,213.4,404.9,213.4z M404.9,203.3c-2,0-3.7,1.7-3.7,3.7c0,2,1.7,3.7,3.7,3.7c2,0,3.7-1.7,3.7-3.7
				C408.5,205,406.9,203.3,404.9,203.3z"/>
			<path class="st2" d="M404.1,245.1L404.1,245.1c-3.5,0-6.4-2.9-6.4-6.4c0-3.5,2.9-6.4,6.4-6.4c3.5,0,6.4,2.9,6.4,6.4
				C410.5,242.2,407.6,245.1,404.1,245.1z M404.1,235c-2,0-3.7,1.7-3.7,3.7c0,2,1.7,3.7,3.7,3.7v1.4l0-1.4c2,0,3.7-1.7,3.7-3.7
				C407.8,236.7,406.1,235,404.1,235z"/>
			<path class="st2" d="M448.8,273L448.8,273c-2.6,0-4.8-2.2-4.8-4.8c0-1.3,0.5-2.5,1.4-3.4c0.9-0.9,2.1-1.4,3.4-1.4
				c2.7,0,4.8,2.2,4.8,4.8C453.7,270.8,451.5,273,448.8,273z M448.8,265.4c-0.7,0-1.4,0.3-2,0.8c-0.5,0.5-0.8,1.2-0.8,2
				c0,1.5,1.2,2.8,2.8,2.8c1.5,0,2.8-1.2,2.8-2.8C451.6,266.6,450.4,265.4,448.8,265.4z"/>
			<path class="st2" d="M307.1,240.1c-0.7,0-1.4-0.6-1.4-1.4c0-0.7,0.6-1.4,1.4-1.4l92-0.1c0,0,0,0,0,0c0.7,0,1.4,0.6,1.4,1.4
				s-0.6,1.4-1.4,1.4L307.1,240.1C307.1,240.1,307.1,240.1,307.1,240.1z"/>
			<path class="st2" d="M412.9,269.5l-25.3-12.4l-66.3,0l0,0c-0.7,0-1.4-0.6-1.4-1.4s0.6-1.4,1.4-1.4l66.9,0l25.3,12.4l30.7,0
				c0,0,0,0,0,0c0.7,0,1.4,0.6,1.4,1.4c0,0.7-0.6,1.4-1.4,1.4L412.9,269.5z"/>
			<g>
				<path class="st2" d="M448.8,344.9L448.8,344.9l-56.3,0l-23.9-18.6l-47.4,0c-0.7,0-1.4-0.6-1.4-1.4c0-0.7,0.6-1.4,1.4-1.4
					c0,0,0,0,0,0l48.3,0l23.9,18.6l55.4,0c0.7,0,1.4,0.6,1.4,1.4C450.2,344.3,449.6,344.9,448.8,344.9z"/>
				<path class="st2" d="M453.9,350C453.9,350,453.9,350,453.9,350L453.9,350c-3.5,0-6.4-2.9-6.4-6.4c0-3.5,2.9-6.4,6.4-6.4
					c3.5,0,6.4,2.9,6.4,6.4C460.2,347.1,457.4,350,453.9,350z M453.8,339.9c-2,0-3.7,1.7-3.7,3.7c0,2,1.7,3.7,3.7,3.7h0
					c2,0,3.7-1.7,3.7-3.7C457.5,341.5,455.9,339.9,453.8,339.9z"/>
				<path class="st2" d="M418.2,318.3C418.2,318.3,418.2,318.3,418.2,318.3L418.2,318.3c-3.5,0-6.4-2.9-6.4-6.4
					c0-3.5,2.9-6.4,6.4-6.4c3.5,0,6.4,2.9,6.4,6.4c0,1.7-0.7,3.3-1.9,4.5C421.5,317.6,419.9,318.3,418.2,318.3z M418.2,308.2
					c-2,0-3.7,1.7-3.7,3.7c0,2,1.7,3.7,3.7,3.7h0l0,0c1,0,1.9-0.4,2.6-1.1c0.7-0.7,1.1-1.6,1.1-2.6
					C421.9,309.9,420.2,308.2,418.2,308.2z"/>
				<path class="st2" d="M448.8,288.8c-1.7,0-3.3-0.7-4.5-1.9c-1.2-1.2-1.9-2.8-1.9-4.5c0-3.5,2.9-6.4,6.4-6.4
					c3.5,0,6.4,2.9,6.4,6.4C455.2,286,452.4,288.8,448.8,288.8z M448.8,278.8c-2,0-3.7,1.7-3.7,3.7c0,1,0.4,1.9,1.1,2.6
					c0.7,0.7,1.6,1.1,2.6,1.1c2,0,3.7-1.7,3.7-3.7C452.5,280.4,450.9,278.8,448.8,278.8z"/>
				<path class="st2" d="M413.2,313.2C413.2,313.2,413.2,313.2,413.2,313.2l-92-0.1c-0.7,0-1.4-0.6-1.4-1.4c0-0.7,0.6-1.4,1.4-1.4
					c0,0,0,0,0,0l92,0c0.7,0,1.4,0.6,1.4,1.4C414.5,312.6,413.9,313.2,413.2,313.2z"/>
				<path class="st2" d="M388.2,296.2l-66.9,0c-0.7,0-1.4-0.6-1.4-1.4c0-0.7,0.6-1.4,1.4-1.4l0,0l66.3,0l25.3-12.4l31.3,0
					c0.7,0,1.4,0.6,1.4,1.4c0,0.7-0.6,1.4-1.4,1.4c0,0,0,0,0,0l-30.7,0L388.2,296.2z"/>
			</g>
			<path class="st2" d="M232.9,227.1L232.9,227.1l-48.3,0l-23.9-18.6l-55.4,0c-0.7,0-1.4-0.6-1.4-1.4c0-0.7,0.6-1.4,1.4-1.4h0
				l56.3,0l23.9,18.6l47.4,0c0.7,0,1.4,0.6,1.4,1.4C234.3,226.5,233.7,227.1,232.9,227.1z"/>
			<path class="st2" d="M100.3,213.4c-3.5,0-6.4-2.9-6.4-6.4c0-3.5,2.9-6.4,6.4-6.4c1.7,0,3.3,0.7,4.5,1.9c1.2,1.2,1.9,2.8,1.9,4.5
				C106.6,210.6,103.8,213.4,100.3,213.4z M100.3,203.3c-2,0-3.7,1.7-3.7,3.7c0,2,1.7,3.7,3.7,3.7c2,0,3.7-1.7,3.7-3.7
				c0-1-0.4-1.9-1.1-2.6C102.2,203.7,101.2,203.3,100.3,203.3z"/>
			<path class="st2" d="M86.8,245.1L86.8,245.1L86.8,245.1c-3.5,0-6.4-2.9-6.4-6.4c0-3.5,2.9-6.4,6.4-6.4c1.7,0,3.3,0.7,4.5,1.9
				c1.2,1.2,1.9,2.8,1.9,4.5c0,1.7-0.7,3.3-1.9,4.5C90.2,244.4,88.6,245.1,86.8,245.1z M86.8,235c-2,0-3.7,1.7-3.7,3.7
				c0,2,1.7,3.7,3.7,3.7h0l0,0c1,0,1.9-0.4,2.6-1.1c0.7-0.7,1.1-1.6,1.1-2.6c0-1-0.4-1.9-1.1-2.6C88.8,235.4,87.8,235,86.8,235z"/>
			<path class="st2" d="M183.8,240.1L183.8,240.1l-92,0c-0.7,0-1.4-0.6-1.4-1.4c0-0.7,0.6-1.4,1.4-1.4h0l92,0.1
				c0.7,0,1.4,0.6,1.4,1.4C185.2,239.5,184.6,240.1,183.8,240.1z"/>
			<path class="st2" d="M87.1,269.5l-31.3,0c-0.7,0-1.4-0.6-1.4-1.4c0-0.7,0.6-1.4,1.4-1.4h0l30.7,0l25.3-12.4l66.9,0
				c0.7,0,1.4,0.6,1.4,1.4c0,0.7-0.6,1.4-1.4,1.4h0l-66.3,0L87.1,269.5z"/>
			<g>
				<path class="st2" d="M51.2,344.9c-0.7,0-1.4-0.6-1.4-1.4c0-0.7,0.6-1.4,1.4-1.4l55.4,0l23.9-18.6l48.3,0h0
					c0.7,0,1.4,0.6,1.4,1.4c0,0.7-0.6,1.4-1.4,1.4l-47.4,0l-23.9,18.6L51.2,344.9L51.2,344.9z"/>
				<path class="st2" d="M46.1,350c-3.5,0-6.4-2.9-6.4-6.4c0-3.5,2.9-6.4,6.4-6.4c3.5,0,6.4,2.9,6.4,6.4c0,1.7-0.7,3.3-1.9,4.5
					C49.5,349.3,47.9,350,46.1,350L46.1,350z M46.2,339.9c-2,0-3.7,1.7-3.7,3.7c0,2,1.7,3.7,3.7,3.7v1.4l0-1.4c1,0,1.9-0.4,2.6-1.1
					c0.7-0.7,1.1-1.6,1.1-2.6C49.8,341.5,48.2,339.9,46.2,339.9z"/>
				<path class="st2" d="M81.8,318.3c-3.5,0-6.4-2.9-6.4-6.4c0-3.5,2.9-6.4,6.4-6.4c3.5,0,6.4,2.9,6.4,6.4c0,1.7-0.7,3.3-1.9,4.5
					C85.1,317.6,83.5,318.3,81.8,318.3L81.8,318.3z M81.8,308.2c-2,0-3.7,1.7-3.7,3.7c0,2,1.7,3.7,3.7,3.7v1.4l0-1.4
					c1,0,1.9-0.4,2.6-1.1c0.7-0.7,1.1-1.6,1.1-2.6C85.5,309.9,83.8,308.2,81.8,308.2z"/>
				<path class="st2" d="M51.2,288.8c-3.5,0-6.4-2.9-6.4-6.4c0-3.5,2.9-6.4,6.4-6.4c3.5,0,6.4,2.9,6.4,6.4c0,1.7-0.7,3.3-1.9,4.5
					C54.5,288.2,52.9,288.8,51.2,288.8z M51.2,278.8c-2,0-3.7,1.7-3.7,3.7c0,2,1.7,3.7,3.7,3.7c1,0,1.9-0.4,2.6-1.1
					c0.7-0.7,1.1-1.6,1.1-2.6C54.8,280.4,53.2,278.8,51.2,278.8z"/>
				<path class="st2" d="M86.8,313.2c-0.7,0-1.4-0.6-1.4-1.4c0-0.7,0.6-1.4,1.4-1.4l92,0h0c0.7,0,1.4,0.6,1.4,1.4
					c0,0.7-0.6,1.4-1.4,1.4L86.8,313.2L86.8,313.2z"/>
				<path class="st2" d="M111.9,296.2l-25.3-12.4l-30.7,0h0c-0.7,0-1.4-0.6-1.4-1.4c0-0.7,0.6-1.4,1.4-1.4l31.3,0l25.3,12.4l66.3,0
					h0c0.7,0,1.4,0.6,1.4,1.4c0,0.7-0.6,1.4-1.4,1.4L111.9,296.2z"/>
			</g>
			<path class="st2" d="M51.2,272.3L51.2,272.3c-2.8,0-5.2-2.3-5.2-5.2c0-2.8,2.3-5.2,5.2-5.2c1.4,0,2.7,0.5,3.7,1.5
				c1,1,1.5,2.3,1.5,3.7C56.3,270,54,272.3,51.2,272.3z M51.2,264.2c-1.6,0-3,1.3-3,3c0,1.6,1.3,3,3,3c1.6,0,3-1.3,3-3
				c0-0.8-0.3-1.5-0.9-2.1C52.7,264.5,52,264.2,51.2,264.2z"/>
		</g>
		<path class="st3" d="M247.1,326.8c0,0,2.9-88.1-17.1-100.6c-20-12.5-79.2,27.2-81.7,38.4c-2.5,11.2,0,34.1,13.4,62.2L247.1,326.8z
			"/>
		<path class="st4" d="M247.1,314l-49.4-32.1l27.9-25.4l-75.8-40.1l57.9-24.2c6.3,10.5,15.5,18.4,26.2,22
			C246.2,253.6,247.1,314,247.1,314z"/>
		<path class="st3" d="M247.1,326.8c0,0-2.9-88.1,17.1-100.6c20-12.5,79.2,27.2,81.7,38.4c2.5,11.2,0,34.1-13.4,62.2L247.1,326.8z"
			/>
		<path class="st4" d="M247.1,314l49.4-32.1l-27.9-25.4l75.8-40.1l-57.9-24.2c-6.3,10.5-15.5,18.4-26.2,22
			C248,253.6,247.1,314,247.1,314z"/>
		<path class="st4" d="M357.1,128.8c0,11.5-48.1,20.8-107.3,20.8c-59.3,0-107.3-9.3-107.3-20.8c0-11.5,48.1-20.8,107.3-20.8
			C309,108,357.1,117.3,357.1,128.8z"/>
		<path class="st5" d="M203.4,110.9c0,0,10.7-56.9,21.1-57.4c10.4-0.5,17.8,15.3,30.2,5.4c12.4-9.9,23.8-25.7,41.3,52
			C296,110.9,249.2,130.7,203.4,110.9z"/>
		<path class="st2" d="M204.7,104.5c0,0,50.5,12.8,89.1,0l2.2,6.4c0,0-7,11-43.8,10.5c-36.8-0.5-48.8-10.5-48.8-10.5L204.7,104.5z"
			/>
	</g>
	<g class="st0">
		<defs>
			<path id="XMLID_1_" d="M246.6,157.1c0,0-30-1-46-6c0,0,5,16,11,21s24,4,25,4s5-11,10-11s9,11,10,11c1,0,19,1,25-4s11-21,11-21
				C276.6,156.1,246.6,157.1,246.6,157.1z"/>
		</defs>
		<use xlink:href="#XMLID_1_"  style="display:inline;overflow:visible;fill:#303030;"/>
		<clipPath id="XMLID_3_" class="st6">
			<use xlink:href="#XMLID_1_"  style="overflow:visible;"/>
		</clipPath>
		<g class="st7">
			<g>
				<path class="st4" d="M220.6,187.9c1.3,0.5,2.7,0.9,4.1,1.3c1.3,0.4,2.6,0.5,3.9,0.8c1.9,0.5,2.7-2.4,0.8-2.9
					c-1.3-0.4-2.6-0.5-3.9-0.8c-1.4-0.4-2.7-0.9-4.1-1.3C219.6,184.4,218.8,187.3,220.6,187.9L220.6,187.9z"/>
			</g>
		</g>
		<polygon class="st8" points="257.8,180.9 252,177.1 271.9,149.5 277.8,153.4 		"/>
		
			<rect x="199.4" y="160" transform="matrix(0.5693 -0.8221 0.8221 0.5693 -41.6734 247.7825)" class="st8" width="32.5" height="7.3"/>
		<g class="st7">
			<g>
				<path class="st9" d="M191.9,156.2c0.1,0.4,0.3,0.7,0.6,1c0.6,0.6,1.5,0.6,2.1,0c0.6-0.6,0.6-1.5,0-2.1c0.1,0.1,0.1,0.2,0.2,0.3
					c-0.1-0.8-1.1-1.2-1.8-1C192.1,154.6,191.8,155.4,191.9,156.2L191.9,156.2z"/>
			</g>
		</g>
		<g class="st7">
			<g>
				<path class="st9" d="M193.7,158.2c1.9,0,1.9-3,0-3C191.7,155.2,191.7,158.2,193.7,158.2L193.7,158.2z"/>
			</g>
		</g>
		<g class="st7">
			<g>
				<path class="st9" d="M193.7,158.2c1.9,0,1.9-3,0-3C191.7,155.2,191.7,158.2,193.7,158.2L193.7,158.2z"/>
			</g>
		</g>
	</g>
	<g class="st10">
		<defs>
			<path id="SVGID_1_" class="st10" d="M286.3,164.6c0,7.4-6.3,13.4-14.2,13.4c-7.8,0-14.2-6-14.2-13.4c0-7.4,6.3-13.4,14.2-13.4
				C280,151.1,286.3,157.1,286.3,164.6z"/>
		</defs>
		<clipPath id="SVGID_2_">
			<use xlink:href="#SVGID_1_"  style="display:none;overflow:visible;"/>
		</clipPath>
	</g>
	<g class="st10">
		<defs>
			<path id="SVGID_3_" class="st10" d="M241.3,163.6c0,8-6.5,14.4-14.4,14.4c-8,0-14.4-6.5-14.4-14.4c0-8,6.5-14.4,14.4-14.4
				C234.9,149.2,241.3,155.7,241.3,163.6z"/>
		</defs>
		<clipPath id="SVGID_4_">
			<use xlink:href="#SVGID_3_"  style="display:none;overflow:visible;"/>
		</clipPath>
	</g>
</g>
<g id="DESIGNED_BY_FREEPIK">
</g>
</svg>
